<svg xmlns="http://www.w3.org/2000/svg" viewBox="0 0 210 194.81"><defs><style>.cls-1{fill:#d02d35;}</style></defs><g id="icons"><path class="cls-1" d="M195.4,57,116.78,8A22.25,22.25,0,0,0,93.22,8L14.6,57A20.17,20.17,0,0,0,5,74.09v95.79c0,11.21,9.33,20.29,20.83,20.29H184.17c11.5,0,20.83-9.08,20.83-20.29V74.09A20.17,20.17,0,0,0,195.4,57Zm-116,80.92L30.69,175.8a6.77,6.77,0,0,1-8.31-10.68l48.7-37.88a6.77,6.77,0,1,1,8.31,10.68ZM98.56,122,36.88,78.34C30.05,73.51,33.56,63,42,63H168c8.44,0,11.95,10.52,5.12,15.35L111.44,122A11.15,11.15,0,0,1,98.56,122Zm90.24,52.59a6.77,6.77,0,0,1-9.49,1.19l-48.7-37.88a6.77,6.77,0,1,1,8.31-10.68l48.7,37.88A6.75,6.75,0,0,1,188.8,174.61Z"/><path class="cls-1" d="M129.35,75.76H86.06a8.12,8.12,0,0,0,0,16.24h43.29a8.12,8.12,0,1,0,0-16.24Z"/></g></svg>