<svg xmlns="http://www.w3.org/2000/svg" width="81.495" height="73.338" viewBox="0 0 81.495 73.338"><g transform="translate(-5.005 -11.987)"><path d="M108.252,93.518l-3.726-11.172a2.468,2.468,0,0,1,.169-1.915A29.109,29.109,0,0,0,88.132,39.51a34.738,34.738,0,0,1,2.049,19.736A34.15,34.15,0,0,1,62.761,86.4a35.886,35.886,0,0,1-5.391.524,28.9,28.9,0,0,0,16.05,8.866,29.231,29.231,0,0,0,18.536-2.672,2.439,2.439,0,0,1,1.9-.157L105.073,96.7a2.515,2.515,0,0,0,3.179-3.179Z" transform="translate(-21.88 -11.5)" fill="#d02d35"/><path d="M29.022,12.536A29.109,29.109,0,0,0,8.693,54.452a2.48,2.48,0,0,1,.169,1.921L5.136,67.534a2.509,2.509,0,0,0,3.179,3.179l11.242-3.738a2.463,2.463,0,0,1,1.9.157,29.149,29.149,0,1,0,7.568-54.6Zm5.35,47.529a3.674,3.674,0,1,1,2.6-1.076A3.679,3.679,0,0,1,34.372,60.064Zm3.569-16.12.052,1.444a3.621,3.621,0,1,1-7.242,0v-1.31a7.33,7.33,0,0,1,4.756-6.951A3.371,3.371,0,1,0,31,33.948a3.621,3.621,0,1,1-7.236,0A10.63,10.63,0,0,1,34.32,23.341a10.246,10.246,0,0,1,7.522,3.138,10.549,10.549,0,0,1-3.9,17.465Z" transform="translate(0 0)" fill="#d02d35"/></g></svg>