<svg xmlns="http://www.w3.org/2000/svg" width="79.134" height="79.42" viewBox="0 0 79.134 79.42"><g transform="translate(-240.395 -172.329)"><g transform="translate(240.395 172.329)"><path d="M243.557,193.5a3.354,3.354,0,0,0,.621.059,3.282,3.282,0,0,0,3.217-2.664c.125-.647.267-1.292.43-1.932a3.278,3.278,0,0,0-6.351-1.63q-.3,1.16-.52,2.332A3.279,3.279,0,0,0,243.557,193.5Zm3.934,10.451a32.963,32.963,0,0,1-.553-3.7,3.278,3.278,0,1,0-6.528.6,39.867,39.867,0,0,0,.66,4.434,3.282,3.282,0,0,0,3.206,2.612,3.346,3.346,0,0,0,.671-.068A3.281,3.281,0,0,0,247.491,203.947Zm61.717,13.32-12.68,2.494a1.141,1.141,0,0,0-.586,1.928l2.784,2.784a33.1,33.1,0,0,1-38.215-.422l0,0q-.813-.6-1.58-1.23a3.278,3.278,0,0,0-4.179,5.053c.6.5,1.23.986,1.871,1.458l0,0a39.721,39.721,0,0,0,46.616,0c.066-.048.122-.107.188-.155l2.7,2.7a1.141,1.141,0,0,0,1.928-.586l2.494-12.68A1.141,1.141,0,0,0,309.208,217.267Zm-58.552-4.546a3.278,3.278,0,0,0-5.787,3.081,39.575,39.575,0,0,0,2.325,3.833,3.279,3.279,0,0,0,5.4-3.713A33.36,33.36,0,0,1,250.655,212.721Z" transform="translate(-240.395 -157.467)" fill="#d02d35"/><path d="M294.6,208.209h-1.943a1.961,1.961,0,0,1-1.322-1.307,17.055,17.055,0,0,0-1.436-3.259.931.931,0,0,1,.138-1.13l1.556-1.556a.96.96,0,0,0,.1-1.239,20.73,20.73,0,0,0-4.214-4.22.952.952,0,0,0-1.239.1l-1.56,1.558a.931.931,0,0,1-1.13.14,16.818,16.818,0,0,0-4.653-1.816h0v-2.933a.946.946,0,0,0-.8-.942,19.606,19.606,0,0,0-5.982,0,.946.946,0,0,0-.8.942v2.933h0a16.846,16.846,0,0,0-4.653,1.816.931.931,0,0,1-1.13-.14l-1.56-1.558a.952.952,0,0,0-1.239-.1,20.717,20.717,0,0,0-4.211,4.22.955.955,0,0,0,.1,1.239l1.554,1.556a.927.927,0,0,1,.138,1.13,17.051,17.051,0,0,0-1.436,3.259,1.961,1.961,0,0,1-1.322,1.307h-1.943a.952.952,0,0,0-.942.8,19.807,19.807,0,0,0,0,6.069.952.952,0,0,0,.942.8h1.943a1.961,1.961,0,0,1,1.322,1.307,17.113,17.113,0,0,0,1.436,3.258.927.927,0,0,1-.138,1.13l-1.554,1.556a.955.955,0,0,0-.1,1.239,20.771,20.771,0,0,0,4.211,4.22.952.952,0,0,0,1.239-.1l1.56-1.558a.931.931,0,0,1,1.13-.14,16.845,16.845,0,0,0,4.653,1.816h0v2.933a.948.948,0,0,0,.8.942,19.606,19.606,0,0,0,5.982,0,.948.948,0,0,0,.8-.942V228.6h0a16.817,16.817,0,0,0,4.653-1.816.931.931,0,0,1,1.13.14l1.56,1.558a.952.952,0,0,0,1.239.1,20.784,20.784,0,0,0,4.214-4.22.96.96,0,0,0-.1-1.239l-1.556-1.556a.931.931,0,0,1-.138-1.13,17.117,17.117,0,0,0,1.436-3.258,1.961,1.961,0,0,1,1.322-1.307H294.6a.95.95,0,0,0,.942-.8,19.807,19.807,0,0,0,0-6.069A.95.95,0,0,0,294.6,208.209Zm-11.736,5.376a7.9,7.9,0,1,1-9.295-9.3A7.91,7.91,0,0,1,282.859,213.585Zm24.792-7.826a32.679,32.679,0,0,1,.5,3.79,3.278,3.278,0,0,0,3.265,3.04c.081,0,.162,0,.243-.009a3.282,3.282,0,0,0,3.031-3.51,39.965,39.965,0,0,0-.6-4.548,3.279,3.279,0,0,0-6.441,1.237Zm-9.225-25.869-.011,0a39.716,39.716,0,0,0-46.535-.055l-2.859-2.859a1.17,1.17,0,0,0-1.976.6l-2.557,13.006a1.169,1.169,0,0,0,1.372,1.375L258.87,189.4a1.17,1.17,0,0,0,.6-1.976l-2.872-2.872a33.1,33.1,0,0,1,37.933.616l0,0q.813.6,1.582,1.233a3.279,3.279,0,0,0,4.174-5.057Q299.388,180.6,298.426,179.89Zm12.966,36.691a3.281,3.281,0,0,0-3.9,2.511c-.142.647-.3,1.292-.481,1.93a3.278,3.278,0,1,0,6.314,1.766q.321-1.147.573-2.31A3.274,3.274,0,0,0,311.392,216.582Zm-2.45-18.434a3.282,3.282,0,0,0,1.4-4.421,39.788,39.788,0,0,0-2.352-3.94,3.277,3.277,0,0,0-5.424,3.68,33.268,33.268,0,0,1,1.958,3.285,3.271,3.271,0,0,0,4.419,1.4Z" transform="translate(-235.569 -172.329)" fill="#d02d35"/></g></g></svg>